<?xml version="1.0" encoding="utf-8"?>
<!-- Generator: Adobe Illustrator 18.0.0, SVG Export Plug-In . SVG Version: 6.00 Build 0)  -->
<!DOCTYPE svg PUBLIC "-//W3C//DTD SVG 1.1//EN" "http://www.w3.org/Graphics/SVG/1.1/DTD/svg11.dtd">
<svg version="1.1" xmlns="http://www.w3.org/2000/svg" xmlns:xlink="http://www.w3.org/1999/xlink" x="0px" y="0px"
	 viewBox="0 0 16 16" enable-background="new 0 0 16 16" xml:space="preserve">
<g id="Layer_1">
</g>
<g id="Layer_101">
</g>
<g id="Layer_100">
</g>
<g id="Layer_99">
</g>
<g id="Layer_98">
</g>
<g id="Layer_97">
</g>
<g id="Layer_96">
</g>
<g id="Layer_95">
</g>
<g id="Layer_94">
</g>
<g id="Layer_93">
</g>
<g id="Layer_92">
</g>
<g id="Layer_91">
</g>
<g id="Layer_90">
</g>
<g id="Layer_89">
</g>
<g id="Layer_88">
</g>
<g id="Layer_87">
</g>
<g id="Layer_86">
</g>
<g id="Layer_85">
</g>
<g id="Layer_84">
</g>
<g id="Layer_83">
</g>
<g id="Layer_82">
</g>
<g id="Layer_81">
</g>
<g id="Layer_80">
</g>
<g id="Layer_79">
</g>
<g id="Layer_78">
</g>
<g id="Layer_77">
</g>
<g id="Layer_76">
</g>
<g id="Layer_75">
</g>
<g id="Layer_74">
</g>
<g id="Layer_73">
</g>
<g id="Layer_72">
</g>
<g id="Layer_71">
</g>
<g id="Layer_70">
</g>
<g id="Layer_69">
</g>
<g id="Layer_68">
</g>
<g id="Layer_67">
</g>
<g id="Layer_66">
</g>
<g id="Layer_65">
</g>
<g id="Layer_64">
</g>
<g id="Layer_63">
</g>
<g id="Layer_62">
</g>
<g id="Layer_61">
</g>
<g id="Layer_60">
</g>
<g id="Layer_59">
</g>
<g id="Layer_58">
</g>
<g id="Layer_57">
</g>
<g id="Layer_56">
</g>
<g id="Layer_55">
</g>
<g id="Layer_54">
</g>
<g id="Layer_53">
</g>
<g id="Layer_52">
</g>
<g id="Layer_51">
</g>
<g id="Layer_50">
</g>
<g id="Layer_49">
</g>
<g id="Layer_48">
</g>
<g id="Layer_47">
</g>
<g id="Layer_46">
</g>
<g id="Layer_45">
</g>
<g id="Layer_44">
</g>
<g id="Layer_43">
</g>
<g id="Layer_42">
</g>
<g id="Layer_41">
</g>
<g id="Layer_40">
</g>
<g id="Layer_39">
</g>
<g id="Layer_38">
	<path id="XMLID_2626_" fill="#232323" d="M7.471,10.048C6.785,8.831,5.496,8,4,8c-2.209,0-4,1.791-4,4s1.791,4,4,4
		c0.579,0,2.5,0,3,0c1.657,0,3-1.343,3-3C10,11.505,8.902,10.274,7.471,10.048z"/>
	<circle id="XMLID_2625_" fill="#232323" cx="13" cy="13" r="3"/>
	<path id="XMLID_2624_" fill="#232323" d="M8.096,9.162c0.72,0.203,1.34,0.602,1.827,1.123C10.576,9.735,11,8.921,11,8
		c0-1.657-1.343-3-3-3C6.645,5,5.513,5.904,5.141,7.138C6.328,7.422,7.386,8.138,8.096,9.162z"/>
	<path id="XMLID_2623_" fill="#232323" d="M8.5,4h-1C7.224,4,7,3.776,7,3.5v-2C7,1.224,7.224,1,7.5,1h1C8.776,1,9,1.224,9,1.5v2
		C9,3.776,8.776,4,8.5,4z"/>
	<path id="XMLID_2622_" fill="#232323" d="M11.182,5.525l-0.707-0.707c-0.195-0.195-0.195-0.512,0-0.707l1.414-1.415
		c0.195-0.195,0.512-0.195,0.707,0l0.707,0.707c0.195,0.195,0.195,0.513,0,0.708l-1.414,1.414
		C11.694,5.721,11.377,5.721,11.182,5.525z"/>
	<path id="XMLID_2621_" fill="#232323" d="M5.525,4.818L4.818,5.525c-0.195,0.195-0.512,0.195-0.707,0L2.697,4.111
		c-0.195-0.195-0.195-0.513,0-0.708l0.707-0.707c0.195-0.195,0.512-0.195,0.707,0l1.414,1.415C5.72,4.307,5.72,4.623,5.525,4.818z"
		/>
	<path id="XMLID_2620_" fill="#232323" d="M15,7.5v1C15,8.776,14.776,9,14.5,9h-2C12.224,9,12,8.776,12,8.5v-1
		C12,7.224,12.224,7,12.5,7h2C14.776,7,15,7.224,15,7.5z"/>
</g>
<g id="Layer_37">
</g>
<g id="Layer_36">
</g>
<g id="Layer_35">
</g>
<g id="Layer_34">
</g>
<g id="Layer_33">
</g>
<g id="Layer_32">
</g>
<g id="Layer_31">
</g>
<g id="Layer_30">
</g>
<g id="Layer_29">
</g>
<g id="Layer_28">
</g>
<g id="Layer_27">
</g>
<g id="Layer_26">
</g>
<g id="Layer_25">
</g>
<g id="Layer_24">
</g>
<g id="Layer_23">
</g>
<g id="Layer_22">
</g>
<g id="Layer_21">
</g>
<g id="Layer_20">
</g>
<g id="Layer_19">
</g>
<g id="Layer_18">
</g>
<g id="Layer_17">
</g>
<g id="Layer_16">
</g>
<g id="Layer_15">
</g>
<g id="Layer_14">
</g>
<g id="Layer_13">
</g>
<g id="Layer_12">
</g>
<g id="Layer_11">
</g>
<g id="Layer_10">
</g>
<g id="Layer_9">
</g>
<g id="Layer_8">
</g>
<g id="Layer_7">
</g>
<g id="Layer_6">
</g>
<g id="Layer_5">
</g>
<g id="Layer_4">
</g>
<g id="Layer_3">
</g>
<g id="Layer_2">
</g>
</svg>
